<?xml version="1.0" encoding="utf-8"?>
<!-- Generator: Adobe Illustrator 22.1.0, SVG Export Plug-In . SVG Version: 6.00 Build 0)  -->
<svg version="1.1" id="Layer_1" xmlns="http://www.w3.org/2000/svg" xmlns:xlink="http://www.w3.org/1999/xlink" x="0px" y="0px"
	 viewBox="0 0 214.2 74.8" style="enable-background:new 0 0 214.2 74.8;" xml:space="preserve">
<style type="text/css">
	.st0{fill:#FFFFFF;}
	.st1{fill:#FEDB00;}
</style>
<g>
	<g>
		<g>
			<g>
				<path class="st0" d="M207.2,56.6c0.5,0.6,0.8,1.3,0.8,2.1c0,0.8-0.3,1.5-0.8,2.1c-0.5,0.6-1.2,0.9-2,0.9c-0.8,0-1.4-0.3-2-0.9
					c-0.5-0.6-0.8-1.3-0.8-2.1c0-0.8,0.3-1.5,0.8-2.1c0.5-0.6,1.2-0.9,2-0.9C206,55.8,206.6,56.1,207.2,56.6z M207.5,56.3
					c-0.6-0.7-1.4-1-2.3-1c-0.9,0-1.7,0.3-2.3,1c-0.6,0.7-1,1.5-1,2.4c0,0.9,0.3,1.8,0.9,2.4c0.6,0.7,1.4,1,2.3,1
					c0.9,0,1.7-0.3,2.3-1c0.6-0.7,0.9-1.5,0.9-2.4C208.5,57.8,208.1,57,207.5,56.3z M205.7,58.6c-0.1,0.1-0.3,0.1-0.6,0.1h-0.6v-1.4
					h0.5c0.3,0,0.6,0,0.8,0.1c0.2,0.1,0.2,0.3,0.2,0.5C206.1,58.3,205.9,58.4,205.7,58.6z M203.9,60.6h0.6v-1.5h0.5
					c0.3,0,0.6,0,0.7,0.1c0.2,0.1,0.3,0.4,0.3,0.9v0.3l0,0.1c0,0,0,0,0,0c0,0,0,0,0,0h0.6l0,0c0,0,0-0.1,0-0.2c0-0.1,0-0.2,0-0.3
					v-0.3c0-0.2-0.1-0.4-0.2-0.6c-0.1-0.2-0.3-0.3-0.6-0.4c0.2,0,0.4-0.1,0.5-0.2c0.2-0.2,0.4-0.4,0.4-0.7c0-0.5-0.2-0.8-0.5-1
					c-0.2-0.1-0.5-0.1-1-0.1h-1.3V60.6z"/>
			</g>
		</g>
		<g>
			<g>
				<g>
					<path class="st0" d="M10.3,11.8v54h189.4v-54H10.3z"/>
				</g>
				<g>
					<rect x="12.2" y="13.7" width="185.7" height="50.3"/>
					<rect x="16.6" y="18.1" class="st1" width="176.8" height="41.3"/>
					<g>
						<path d="M184.6,49.9c-0.2,0.1-0.4,0.2-0.7,0.1c-1-0.1-2.6-1.1-4.2-3.1c-0.1-0.2-0.3-0.3-0.4-0.5h4.8c0.1,0.1,0.1,0.3,0.2,0.4
							h0c0.3,0.7,0.4,1.3,0.6,1.8C185,49.3,184.9,49.7,184.6,49.9 M184.5,51.7h-7.1c-0.1-0.1-0.3-0.4-0.6-0.7h6.1
							c0.3,0.1,0.6,0.2,0.9,0.3c0.4,0,0.7,0,1-0.1C184.8,51.3,184.6,51.5,184.5,51.7 M179.1,52.7c-0.5-0.1-0.8-0.2-1.1-0.4h5.8
							C182.4,53.1,180,52.9,179.1,52.7 M58.8,52.7c-0.1,0-0.9,0.1-2.2-1.3h118.9c0.7,0.8,1.1,1.2,1.2,1.2l0,0L58.8,52.7z M55.4,50
							h118.9c0.2,0.3,0.5,0.5,0.7,0.8H56.1C55.9,50.6,55.7,50.4,55.4,50 M54.9,49.4c-0.4-0.4-0.8-0.9-1.3-1.5H55v-0.6h-2
							c-0.4-0.4-0.8-0.8-1.2-1.3H55v-0.6h-3.7c-0.6-0.7-1.2-1.3-1.9-2.1H55v-0.6h-6.1c-0.5-0.5-1-1.1-1.5-1.6H55v-0.6h-8.2
							c-0.4-0.4-0.8-0.9-1.2-1.3H55v-0.6h-9.9c-0.3-0.3-0.5-0.6-0.8-0.9H55v-0.6H43.8c-0.2-0.3-0.5-0.5-0.7-0.8H55v-0.6H42.5
							c-0.2-0.2-0.3-0.3-0.5-0.5h13v-0.6H41.5c-0.2-0.3-0.5-0.5-0.7-0.8H55v-0.6H40.2c-0.2-0.3-0.5-0.5-0.7-0.8H55v-0.6H39
							c-0.2-0.3-0.5-0.5-0.7-0.8H55v-0.6H37.7c-0.4-0.5-0.8-0.9-1.2-1.3h118.8c0.3,0.4,0.7,0.8,1.2,1.3h-1.4v0.6h2
							c0.2,0.2,0.5,0.5,0.7,0.8h-2.7v0.6h3.2c0.2,0.3,0.5,0.5,0.7,0.8h-3.9v0.6h4.5c0.2,0.3,0.5,0.5,0.7,0.8h-5.2v0.6h5.7
							c0.2,0.2,0.3,0.3,0.5,0.5h-6.2v0.6h6.7c0.2,0.3,0.5,0.5,0.7,0.8h-7.5v0.6h8c0.3,0.3,0.5,0.6,0.8,0.9h-8.8v0.6h9.3
							c0.4,0.4,0.8,0.9,1.2,1.3h-10.5v0.6h11.1c0.5,0.5,1,1.1,1.5,1.6h-12.6v0.6h13.1c0.2,0.2,0.4,0.4,0.6,0.6h-13.7v0.6h14.2
							c0.3,0.3,0.5,0.6,0.8,0.9h-15v0.6h15.6c0.2,0.3,0.5,0.5,0.7,0.8h-16.3V48h0v-0.5h16.8c0.2,0.2,0.4,0.5,0.6,0.7h-17.5v0.6h18
							c0.2,0.2,0.4,0.5,0.6,0.7H54.9z M36.5,38c0.1-0.2,0.3-0.4,0.3-0.6h5.4c0.2,0.2,0.4,0.4,0.6,0.6H36.5z M41.4,36.5
							c0.1,0.1,0.2,0.2,0.2,0.3h-4.7c0-0.1,0-0.2,0-0.3H41.4z M39.1,34.1c0.6,0.6,1.1,1.2,1.7,1.9h-4c-0.1-0.6-0.3-1.2-0.7-1.9H39.1
							z M34.3,31.3h2.3c0.6,0.7,1.3,1.4,2,2.1h-2.7C35.5,32.7,35,32,34.3,31.3 M35.8,36.5c0,0.3-0.1,0.6-0.2,0.8
							c-0.6,0.6-2.3,0.3-4.2-0.8L35.8,36.5L35.8,36.5z M29,34.8c-0.3-0.2-0.6-0.5-0.8-0.8h6.7c0.4,0.7,0.7,1.3,0.8,1.9h-5.3
							C30,35.6,29.5,35.3,29,34.8 M26.2,31.3h6.4c0.8,0.7,1.4,1.4,1.9,2.1h-6.8C27.1,32.7,26.6,32,26.2,31.3 M25.7,29.5
							c0-0.4,0.1-0.7,0.2-0.9c0.2-0.2,0.5-0.3,0.9-0.3c1.3-0.1,3.3,0.9,5.2,2.4h-6C25.8,30.3,25.7,29.9,25.7,29.5 M25.8,27.3h0.1
							C25.8,27.3,25.8,27.3,25.8,27.3C25.8,27.3,25.8,27.3,25.8,27.3 M31.3,26.4c0.4,0.1,0.7,0.2,0.9,0.3h-5.7
							C27.3,26.3,28.7,26,31.3,26.4 M33,27.5h-4.3c-0.2-0.1-0.4-0.1-0.6-0.2h4.7C32.9,27.3,33,27.4,33,27.5 M151.5,26.2l0.1,0
							c0,0,0.4,0,1.1,0.5H34c-0.1-0.1-0.2-0.2-0.3-0.3l-0.1-0.1c0,0,0,0-0.1-0.1L151.5,26.2z M31.4,28.8c-0.4-0.3-0.9-0.5-1.3-0.8
							h3.5c0.2,0.2,0.4,0.5,0.7,0.8H31.4z M34.9,29.4c0.4,0.4,0.8,0.8,1.2,1.3h-2.4c-0.2-0.2-0.3-0.3-0.5-0.5
							c-0.3-0.3-0.6-0.5-1-0.8H34.9z M154.2,28.2c0.1,0.2,0.3,0.4,0.6,0.7H36c-0.6-0.6-1.1-1.1-1.4-1.5h118.9
							C153.7,27.5,153.9,27.8,154.2,28.2 M176.7,41.4c-0.1,0.2-0.1,0.4-0.2,0.6c0,0.1,0,0.3,0,0.4c0,0.1,0,0.3,0,0.5h-7.3
							c-0.4-0.5-0.9-1-1.4-1.5H176.7z M170.4,44.1c-0.2-0.2-0.4-0.4-0.6-0.6h6.8c0,0.2,0.1,0.4,0.2,0.6H170.4z M177.4,45.5h-5.7
							c-0.3-0.3-0.5-0.6-0.8-0.9h6.1C177.1,44.9,177.2,45.2,177.4,45.5 M178,41.5c0.6-0.5,2.5,0.2,4.3,2.3H178
							c-0.2-0.7-0.3-1.3-0.3-1.7C177.7,41.8,177.8,41.6,178,41.5 M173,46.9c-0.2-0.3-0.5-0.5-0.7-0.8h5.5c0.1,0.3,0.3,0.5,0.5,0.8
							H173z M174.2,48.2c-0.2-0.2-0.4-0.4-0.6-0.7h5.1c0.1,0.1,0.1,0.1,0.2,0.2c0.1,0.2,0.3,0.3,0.4,0.5H174.2z M181.2,50
							c0.2,0.1,0.3,0.2,0.5,0.3h-5.5c-0.1-0.1-0.2-0.2-0.3-0.3H181.2z M175.3,49.4c-0.2-0.2-0.4-0.4-0.6-0.7h5
							c0.2,0.2,0.5,0.5,0.7,0.7H175.3z M182.8,44.4C182.9,44.4,182.9,44.4,182.8,44.4c0.4,0.5,0.7,1,1,1.5H179
							c-0.3-0.5-0.6-1-0.8-1.5H182.8z M186,48.3c-0.2-1.3-1-3-2.2-4.6c-1.9-2.4-4.1-3.7-5.6-3.5v0h-11.5
							c-5.2-5.6-10.5-11.5-11.6-12.8c-2-2.4-3.3-2.5-3.8-2.4l-121.8,0v0c-2.8-0.1-4.1,0.7-4.7,1.5c-0.9,1.1-0.8,2.8,0.1,4.9l0,0
							c0.6,1.4,1.7,2.9,3.3,4.3c2.8,2.5,5.8,3.6,7.5,2.9h7.6c5.3,5.7,10.8,11.7,11.9,13.1c2,2.4,3.5,2.2,3.7,2.2
							c-0.1,0,117.4,0,120,0c0.6,0.1,4.6,0.8,6.4-1.3C186.2,51.5,186.5,50.1,186,48.3"/>
						<path d="M80.3,35.3v2.6H82c0.8,0,1.4-0.5,1.4-1.4c0-1.2-0.8-1.2-1.6-1.2H80.3z M80.3,40.7v2.9H82c1,0,1.7-0.3,1.7-1.4
							c0-1.4-0.9-1.5-2.2-1.5H80.3z M76.3,47.3V31.6h5.8c2.7,0,4.9,0.8,4.9,3.9c0,1.6-0.8,2.8-1.6,3.4c1.3,0.4,2,1.9,2,3.6
							c0,3.5-2.1,4.7-5.2,4.7H76.3z"/>
					</g>
					<polygon points="99,47.3 99,31.6 103,31.6 103,36.9 106.8,36.9 106.8,31.6 110.8,31.6 110.8,47.3 106.8,47.3 106.8,41.2 
						103,41.2 103,47.3 					"/>
					<g>
						<path d="M113.6,31.6h4V41c0,1.5,0.2,2.9,1.9,2.9c1.4,0,1.9-1.2,1.9-2.9v-9.3h4v8.8c0,5-1.8,7.2-5.9,7.2
							c-3.8,0-5.9-1.8-5.9-7.2V31.6z"/>
					</g>
					<polygon points="135.8,40.2 135.7,36.6 135.7,31.6 139.5,31.6 139.5,47.3 135.7,47.3 131.4,38.8 131.5,42.3 131.5,47.3 
						127.7,47.3 127.7,31.6 131.5,31.6 					"/>
					<polygon points="141.2,31.6 152.4,31.6 152.4,35.7 148.8,35.7 148.8,47.3 144.8,47.3 144.8,35.7 141.2,35.7 					"/>
					<g>
						<path d="M70.2,43.4c-1.2,0-2.1,0.9-2.1,2.1c0,1.2,0.9,2.1,2.1,2.1c1.2,0,2.1-0.9,2.1-2.1C72.3,44.3,71.4,43.4,70.2,43.4"/>
						<path d="M90.6,43.4c-1.2,0-2.1,0.9-2.1,2.1c0,1.2,0.9,2.1,2.1,2.1c1.2,0,2.1-0.9,2.1-2.1C92.7,44.3,91.8,43.4,90.6,43.4"/>
						<path d="M59.6,42.8c1.2,1.5,2.4,1.5,3.1,1.3c0.8-0.2,1-0.8,1-2.1V31.6h4v9.6c0,4.1-1.5,6.2-4.8,6.4c-3.1,0.2-4-0.4-5.7-2.4
							L59.6,42.8z"/>
					</g>
				</g>
			</g>
		</g>
	</g>
</g>
</svg>
